# xmcd
#
# Track frame offsets:
#	150
#	15004
#	32300
#	47439
#	61934
#	80641
#	97094
#	114656
#	133790
#	146591
#	160742
#	177630
#
# Disc length: 2574 seconds
#
# Revision: 1
# Processed by: cddbd v1.4PL0 Copyright (c) Steve Scherf et al.
# Submitted via: audiograbber 1.82.02
#
DISCID=950a0c0c
DTITLE=Larry Dean  - Outlaws, Guitars and Lovesongs
DYEAR=1900
DGENRE=country
TTITLE0=honky tonk guitar
TTITLE1=high and lonesome
TTITLE2=The hurting game
TTITLE3=barrooms broken hearts and beer
TTITLE4=Trouble is our kinda play
TTITLE5=Jack of diamonds
TTITLE6=who's gonna drive
TTITLE7=right place right time
TTITLE8=this old rock
TTITLE9=a drink a rose and a candle
TTITLE10=to night's the night
TTITLE11=More than just a lady
EXTD=
EXTT0=
EXTT1=
EXTT2=
EXTT3=
EXTT4=
EXTT5=
EXTT6=
EXTT7=
EXTT8=
EXTT9=
EXTT10=
EXTT11=
PLAYORDER=
